<?xml version="1.0" encoding="utf-8"?>
<!-- Generator: Adobe Illustrator 15.0.0, SVG Export Plug-In . SVG Version: 6.00 Build 0)  -->
<!DOCTYPE svg PUBLIC "-//W3C//DTD SVG 1.1//EN" "http://www.w3.org/Graphics/SVG/1.1/DTD/svg11.dtd">
<svg version="1.1" id="Layer_1" xmlns="http://www.w3.org/2000/svg" xmlns:xlink="http://www.w3.org/1999/xlink" x="0px" y="0px"
	 width="1000px" height="800px" viewBox="0 0 1000 800" enable-background="new 0 0 1000 800" xml:space="preserve">
<path d="M561.739,39.194c5.6,5.598,9.062,13.333,9.062,21.876v22.182c0,8.199-3.19,15.652-8.397,21.187
	c-5.207,5.534-12.43,9.149-20.497,9.677v-5.855v-5.854c4.833-0.512,9.139-2.817,12.234-6.236c3.097-3.419,4.985-7.952,4.985-12.917
	V61.07c0-5.311-2.16-10.126-5.648-13.615c-3.487-3.487-8.303-5.647-13.614-5.647h-41.445v41.445c0,4.965,1.89,9.498,4.985,12.917
	c3.098,3.419,7.403,5.724,12.235,6.236v5.854v5.855c-8.066-0.527-15.29-4.143-20.497-9.677c-5.207-5.535-8.398-12.988-8.398-21.187
	V30.133h53.12C548.406,30.133,556.141,33.596,561.739,39.194z M528.774,73.864c1.94,0,3.698-0.788,4.97-2.061
	c1.272-1.273,2.06-3.03,2.06-4.971c0-1.942-0.787-3.7-2.06-4.972c-1.271-1.271-3.029-2.058-4.97-2.058
	c-1.941,0-3.699,0.787-4.972,2.058c-1.272,1.272-2.06,3.03-2.06,4.972c0,1.94,0.787,3.698,2.06,4.971
	C525.075,73.076,526.833,73.864,528.774,73.864z M522.936,79.675v17.22v17.221h5.836h5.838V96.895v-17.22h-5.838H522.936z"/>
</svg>
